<svg xmlns="http://www.w3.org/2000/svg" xmlns:xlink="http://www.w3.org/1999/xlink" width="150" zoomAndPan="magnify" viewBox="0 0 112.5 112.499997" height="150" preserveAspectRatio="xMidYMid meet" version="1.2"><defs><clipPath id="41e0598459"><path d="M 0 0 L 112 0 L 112 111.253906 L 0 111.253906 Z M 0 0 "/></clipPath></defs><g id="45e19a7506"><g clip-rule="nonzero" clip-path="url(#41e0598459)"><path style=" stroke:none;fill-rule:nonzero;fill:#ee440f;fill-opacity:1;" d="M 55.855469 0.0390625 C 25.003906 0.0390625 0 25.039062 0 55.894531 C 0 83.605469 20.214844 106.625 46.667969 110.976562 L 46.667969 73.109375 L 32.449219 73.109375 L 32.449219 56.523438 L 46.667969 56.523438 L 46.667969 44.480469 C 46.667969 31.421875 57.257812 22.574219 70.316406 22.574219 C 76.117188 22.574219 79.746094 23.445312 79.746094 23.445312 L 79.746094 37.371094 L 70.316406 37.371094 C 66.398438 37.371094 63.207031 40.5625 63.207031 44.480469 L 63.207031 56.523438 L 78.441406 56.523438 L 76.3125 73.109375 L 63.207031 73.109375 L 63.207031 111.21875 C 90.53125 107.589844 111.613281 84.183594 111.613281 55.894531 C 111.664062 25.039062 86.660156 0.0390625 55.855469 0.0390625 Z M 55.855469 0.0390625 "/></g></g></svg>