<svg xmlns="http://www.w3.org/2000/svg" xmlns:xlink="http://www.w3.org/1999/xlink" width="150" zoomAndPan="magnify" viewBox="0 0 112.5 112.499997" height="150" preserveAspectRatio="xMidYMid meet" version="1.2"><defs><clipPath id="c515cbc1b3"><path d="M 0 0 L 112.003906 0 L 112.003906 112.003906 L 0 112.003906 Z M 0 0 "/></clipPath></defs><g id="781c59d235"><g clip-rule="nonzero" clip-path="url(#c515cbc1b3)"><path style=" stroke:none;fill-rule:nonzero;fill:#ee440f;fill-opacity:1;" d="M 32.933594 0 C 14.855469 0 0 14.835938 0 32.933594 L 0 79.070312 C 0 97.148438 14.835938 112.003906 32.933594 112.003906 L 79.070312 112.003906 C 97.148438 112.003906 112.003906 97.167969 112.003906 79.070312 L 112.003906 32.933594 C 112.003906 14.855469 97.167969 0 79.070312 0 Z M 32.933594 10.183594 L 79.070312 10.183594 C 91.65625 10.183594 101.820312 20.34375 101.820312 32.933594 L 101.820312 79.070312 C 101.820312 91.65625 91.65625 101.820312 79.070312 101.820312 L 32.933594 101.820312 C 20.34375 101.820312 10.183594 91.65625 10.183594 79.070312 L 10.183594 32.933594 C 10.183594 20.34375 20.34375 10.183594 32.933594 10.183594 Z M 86.070312 21.320312 C 83.503906 21.320312 81.457031 23.367188 81.457031 25.933594 C 81.457031 28.496094 83.503906 30.546875 86.070312 30.546875 C 88.636719 30.546875 90.683594 28.496094 90.683594 25.933594 C 90.683594 23.367188 88.636719 21.320312 86.070312 21.320312 Z M 56 25.453125 C 39.195312 25.453125 25.453125 39.195312 25.453125 56 C 25.453125 72.804688 39.195312 86.546875 56 86.546875 C 72.804688 86.546875 86.546875 72.804688 86.546875 56 C 86.546875 39.195312 72.804688 25.453125 56 25.453125 Z M 56 35.636719 C 67.316406 35.636719 76.363281 44.683594 76.363281 56 C 76.363281 67.316406 67.316406 76.363281 56 76.363281 C 44.683594 76.363281 35.636719 67.316406 35.636719 56 C 35.636719 44.683594 44.683594 35.636719 56 35.636719 Z M 56 35.636719 "/></g></g></svg>