<svg xmlns="http://www.w3.org/2000/svg" xmlns:xlink="http://www.w3.org/1999/xlink" width="150" zoomAndPan="magnify" viewBox="0 0 112.5 112.499997" height="150" preserveAspectRatio="xMidYMid meet" version="1.2"><defs><clipPath id="d74c8400cb"><path d="M 0 0 L 112 0 L 112 112.003906 L 0 112.003906 Z M 0 0 "/></clipPath></defs><g id="1d61ef2dfe"><g clip-rule="nonzero" clip-path="url(#d74c8400cb)"><path style=" stroke:none;fill-rule:nonzero;fill:#ee440f;fill-opacity:1;" d="M 102.644531 0 L 9.414062 0 C 4.257812 0 0.113281 4.203125 0.113281 9.300781 L 0.113281 102.703125 C 0.113281 107.855469 4.3125 112.003906 9.414062 112.003906 L 102.589844 112.003906 C 107.742188 112.003906 111.890625 107.800781 111.890625 102.703125 L 111.890625 9.300781 C 111.945312 4.203125 107.800781 0 102.644531 0 Z M 33.226562 92.390625 L 16.695312 92.390625 L 16.695312 42.75 L 33.226562 42.75 Z M 24.933594 36.753906 C 19.722656 36.753906 15.519531 32.554688 15.519531 27.34375 C 15.519531 22.132812 19.722656 17.929688 24.933594 17.929688 C 30.144531 17.929688 34.347656 22.132812 34.347656 27.34375 C 34.347656 32.554688 30.144531 36.753906 24.933594 36.753906 Z M 95.417969 92.390625 L 78.832031 92.390625 L 78.441406 62.921875 C 78.441406 62.921875 78.832031 55.078125 70.261719 55.132812 C 61.6875 55.1875 60.511719 62.921875 60.511719 62.921875 L 60.511719 92.390625 L 43.816406 92.390625 L 43.816406 42.75 L 59.839844 42.75 L 59.839844 49.585938 C 59.839844 49.585938 60.511719 47.34375 64.210938 44.710938 C 67.90625 42.078125 74.015625 41.515625 76.648438 41.628906 C 79.28125 41.742188 82.867188 41.292969 88.863281 45.441406 C 95.304688 49.867188 95.472656 61.464844 95.472656 61.464844 Z M 95.417969 92.390625 "/></g></g></svg>