<svg xmlns="http://www.w3.org/2000/svg" xmlns:xlink="http://www.w3.org/1999/xlink" width="150" zoomAndPan="magnify" viewBox="0 0 112.5 112.499997" height="150" preserveAspectRatio="xMidYMid meet" version="1.2"><g id="892a778591"><path style=" stroke:none;fill-rule:nonzero;fill:#ee440f;fill-opacity:1;" d="M 55.820312 0.101562 C 24.800781 0.207031 0.0078125 25.429688 0.414062 56.449219 C 0.449219 59.570312 0.75 62.667969 1.308594 65.738281 C 1.871094 68.8125 2.683594 71.8125 3.753906 74.75 C 4.824219 77.683594 6.128906 80.503906 7.675781 83.21875 C 9.222656 85.929688 10.988281 88.496094 12.96875 90.910156 C 13.28125 91.292969 13.527344 91.710938 13.714844 92.167969 C 13.902344 92.625 14.015625 93.101562 14.058594 93.59375 C 14.101562 94.085938 14.070312 94.574219 13.96875 95.054688 C 13.863281 95.539062 13.691406 95.996094 13.449219 96.425781 L 8.660156 105.011719 C 7.332031 107.390625 9.496094 110.203125 12.136719 109.53125 L 28.359375 105.402344 C 29.527344 105.105469 30.65625 105.21875 31.738281 105.746094 C 35.324219 107.492188 39.058594 108.828125 42.933594 109.765625 C 46.8125 110.703125 50.746094 111.210938 54.730469 111.296875 C 85.921875 112.003906 111.519531 87.082031 111.617188 55.882812 C 111.714844 25.027344 86.679688 0 55.820312 0.101562 Z M 56.011719 104.460938 C 54.417969 104.460938 52.824219 104.382812 51.234375 104.226562 C 49.644531 104.070312 48.066406 103.835938 46.503906 103.523438 C 44.9375 103.210938 43.390625 102.824219 41.859375 102.359375 C 40.332031 101.898438 38.832031 101.359375 37.355469 100.75 C 35.882812 100.136719 34.4375 99.457031 33.03125 98.703125 C 31.621094 97.953125 30.253906 97.132812 28.925781 96.246094 C 27.601562 95.355469 26.320312 94.40625 25.085938 93.394531 C 23.851562 92.382812 22.667969 91.308594 21.539062 90.179688 C 20.410156 89.050781 19.339844 87.871094 18.328125 86.636719 C 17.3125 85.402344 16.363281 84.121094 15.476562 82.792969 C 14.589844 81.464844 13.769531 80.097656 13.015625 78.6875 C 12.265625 77.28125 11.582031 75.839844 10.972656 74.363281 C 10.359375 72.890625 9.824219 71.386719 9.359375 69.859375 C 8.894531 68.332031 8.507812 66.785156 8.195312 65.21875 C 7.886719 63.652344 7.652344 62.074219 7.496094 60.484375 C 7.339844 58.898438 7.261719 57.304688 7.261719 55.707031 C 7.261719 28.78125 29.089844 6.953125 56.011719 6.953125 C 82.835938 6.953125 104.597656 28.613281 104.765625 55.394531 C 104.933594 82.265625 82.886719 104.460938 56.011719 104.460938 Z M 56.011719 104.460938 "/><path style=" stroke:none;fill-rule:nonzero;fill:#ee440f;fill-opacity:1;" d="M 47.300781 32.003906 L 47.324219 32.050781 L 50.230469 37.816406 C 50.542969 38.441406 50.753906 39.097656 50.855469 39.789062 C 50.953125 40.484375 50.945312 41.171875 50.820312 41.859375 C 50.699219 42.550781 50.46875 43.199219 50.132812 43.8125 C 49.800781 44.429688 49.375 44.972656 48.863281 45.449219 C 48.355469 45.921875 47.933594 46.464844 47.597656 47.074219 C 47.261719 47.683594 47.035156 48.328125 46.910156 49.011719 C 46.785156 49.695312 46.769531 50.382812 46.867188 51.070312 C 46.960938 51.757812 47.164062 52.414062 47.472656 53.039062 C 49.21875 56.542969 52.242188 61.375 56.859375 64.859375 C 57.375 65.253906 57.941406 65.5625 58.550781 65.785156 C 59.160156 66.007812 59.789062 66.136719 60.4375 66.171875 C 61.085938 66.203125 61.726562 66.140625 62.355469 65.984375 C 62.984375 65.824219 63.578125 65.578125 64.132812 65.242188 L 66.003906 64.101562 C 66.855469 63.582031 67.777344 63.277344 68.769531 63.1875 C 69.761719 63.097656 70.722656 63.226562 71.65625 63.582031 L 79.097656 66.410156 C 79.496094 66.5625 79.871094 66.75 80.230469 66.976562 C 80.589844 67.199219 80.925781 67.457031 81.234375 67.75 C 81.542969 68.039062 81.820312 68.359375 82.066406 68.703125 C 82.3125 69.046875 82.519531 69.414062 82.695312 69.800781 C 82.867188 70.1875 83.003906 70.589844 83.097656 71 C 83.191406 71.414062 83.246094 71.832031 83.257812 72.257812 C 83.269531 72.679688 83.242188 73.101562 83.171875 73.519531 C 83.101562 73.9375 82.988281 74.34375 82.839844 74.742188 C 82.753906 74.96875 82.652344 75.191406 82.542969 75.40625 L 80.480469 79.40625 C 80.144531 80.058594 79.707031 80.632812 79.175781 81.136719 C 78.640625 81.640625 78.042969 82.042969 77.371094 82.339844 C 76.703125 82.640625 76.003906 82.820312 75.273438 82.878906 C 74.542969 82.941406 73.820312 82.878906 73.113281 82.695312 C 61.421875 79.667969 33.5625 69.15625 31.316406 37.367188 C 31.273438 36.734375 31.320312 36.109375 31.457031 35.492188 C 31.597656 34.875 31.820312 34.292969 32.128906 33.742188 C 32.441406 33.191406 32.824219 32.695312 33.277344 32.257812 C 33.734375 31.816406 34.242188 31.453125 34.804688 31.164062 L 38.601562 29.214844 C 38.980469 29.019531 39.371094 28.863281 39.78125 28.75 C 40.1875 28.632812 40.601562 28.554688 41.027344 28.519531 C 41.449219 28.484375 41.871094 28.492188 42.292969 28.542969 C 42.710938 28.589844 43.125 28.679688 43.527344 28.808594 C 43.933594 28.9375 44.320312 29.105469 44.691406 29.3125 C 45.0625 29.515625 45.410156 29.757812 45.734375 30.03125 C 46.054688 30.304688 46.347656 30.609375 46.613281 30.941406 C 46.878906 31.273438 47.105469 31.628906 47.300781 32.003906 Z M 47.300781 32.003906 "/></g></svg>