<svg xmlns="http://www.w3.org/2000/svg" xmlns:xlink="http://www.w3.org/1999/xlink" width="150" zoomAndPan="magnify" viewBox="0 0 112.5 112.499997" height="150" preserveAspectRatio="xMidYMid meet" version="1.2"><g id="874ee772aa"><path style=" stroke:none;fill-rule:nonzero;fill:#ee440f;fill-opacity:1;" d="M 111.960938 55.929688 C 111.960938 57.761719 111.871094 59.585938 111.691406 61.410156 C 111.511719 63.234375 111.242188 65.042969 110.882812 66.839844 C 110.527344 68.636719 110.082031 70.410156 109.550781 72.164062 C 109.019531 73.917969 108.402344 75.640625 107.699219 77.332031 C 107 79.023438 106.214844 80.679688 105.351562 82.292969 C 104.488281 83.910156 103.546875 85.476562 102.527344 87 C 101.511719 88.523438 100.421875 89.992188 99.257812 91.410156 C 98.09375 92.824219 96.867188 94.179688 95.570312 95.476562 C 94.273438 96.769531 92.917969 98 91.5 99.164062 C 90.082031 100.324219 88.613281 101.414062 87.089844 102.433594 C 85.566406 103.449219 83.996094 104.390625 82.378906 105.253906 C 80.761719 106.117188 79.109375 106.898438 77.414062 107.601562 C 75.722656 108.300781 74 108.917969 72.246094 109.449219 C 70.492188 109.980469 68.714844 110.425781 66.917969 110.78125 C 65.121094 111.140625 63.308594 111.410156 61.484375 111.589844 C 59.660156 111.769531 57.832031 111.855469 56 111.855469 C 54.167969 111.855469 52.339844 111.769531 50.515625 111.589844 C 48.691406 111.410156 46.878906 111.140625 45.082031 110.78125 C 43.285156 110.425781 41.507812 109.980469 39.753906 109.449219 C 38 108.917969 36.277344 108.300781 34.585938 107.601562 C 32.890625 106.898438 31.238281 106.117188 29.621094 105.253906 C 28.003906 104.390625 26.433594 103.449219 24.910156 102.433594 C 23.386719 101.414062 21.914062 100.324219 20.5 99.164062 C 19.082031 98 17.726562 96.769531 16.429688 95.476562 C 15.132812 94.179688 13.90625 92.824219 12.742188 91.410156 C 11.578125 89.992188 10.488281 88.523438 9.472656 87 C 8.453125 85.476562 7.511719 83.910156 6.648438 82.292969 C 5.785156 80.679688 5 79.023438 4.300781 77.332031 C 3.597656 75.640625 2.980469 73.917969 2.449219 72.164062 C 1.917969 70.410156 1.472656 68.636719 1.113281 66.839844 C 0.757812 65.042969 0.488281 63.234375 0.308594 61.410156 C 0.128906 59.585938 0.0390625 57.761719 0.0390625 55.929688 C 0.0390625 54.097656 0.128906 52.269531 0.308594 50.445312 C 0.488281 48.625 0.757812 46.8125 1.113281 45.015625 C 1.472656 43.222656 1.917969 41.445312 2.449219 39.695312 C 2.980469 37.941406 3.597656 36.21875 4.300781 34.527344 C 5 32.832031 5.785156 31.179688 6.648438 29.5625 C 7.511719 27.949219 8.453125 26.378906 9.472656 24.855469 C 10.488281 23.332031 11.578125 21.863281 12.742188 20.449219 C 13.90625 19.03125 15.132812 17.675781 16.429688 16.382812 C 17.726562 15.085938 19.082031 13.855469 20.5 12.695312 C 21.914062 11.53125 23.386719 10.441406 24.910156 9.425781 C 26.433594 8.40625 28.003906 7.46875 29.621094 6.605469 C 31.238281 5.742188 32.890625 4.957031 34.585938 4.257812 C 36.277344 3.554688 38 2.941406 39.753906 2.410156 C 41.507812 1.875 43.285156 1.433594 45.082031 1.074219 C 46.878906 0.71875 48.691406 0.449219 50.515625 0.269531 C 52.339844 0.0898438 54.167969 0 56 0 C 57.832031 0 59.660156 0.0898438 61.484375 0.269531 C 63.308594 0.449219 65.121094 0.71875 66.917969 1.074219 C 68.714844 1.433594 70.492188 1.875 72.246094 2.410156 C 74 2.941406 75.722656 3.554688 77.414062 4.257812 C 79.109375 4.957031 80.761719 5.742188 82.378906 6.605469 C 83.996094 7.46875 85.566406 8.40625 87.089844 9.425781 C 88.613281 10.441406 90.082031 11.53125 91.5 12.695312 C 92.917969 13.855469 94.273438 15.085938 95.570312 16.382812 C 96.867188 17.675781 98.09375 19.03125 99.257812 20.449219 C 100.421875 21.863281 101.511719 23.332031 102.527344 24.855469 C 103.546875 26.378906 104.488281 27.949219 105.351562 29.5625 C 106.214844 31.179688 107 32.832031 107.699219 34.527344 C 108.402344 36.21875 109.019531 37.941406 109.550781 39.695312 C 110.082031 41.445312 110.527344 43.222656 110.882812 45.015625 C 111.242188 46.8125 111.511719 48.625 111.691406 50.445312 C 111.871094 52.269531 111.960938 54.097656 111.960938 55.929688 Z M 111.960938 55.929688 "/><path style=" stroke:none;fill-rule:nonzero;fill:#ffffff;fill-opacity:1;" d="M 62.898438 50.675781 L 90.269531 19.144531 L 83.824219 19.144531 L 60.003906 46.515625 L 41.429688 19.839844 L 20.273438 19.839844 L 48.304688 59.964844 L 19.828125 92.6875 L 26.433594 92.6875 L 51.21875 64.132812 L 71.183594 92.714844 L 92.175781 92.714844 Z M 54.226562 60.664062 L 51.316406 56.5 L 28.816406 24.289062 L 39.101562 24.289062 L 56.992188 49.976562 L 59.886719 54.140625 L 83.644531 88.261719 L 73.503906 88.261719 Z M 54.226562 60.664062 "/></g></svg>